<svg width="20" height="20" viewBox="0 0 20 20" fill="none" xmlns="http://www.w3.org/2000/svg">
<path d="M18.0883 4.40999L15.5892 1.91082C15.5119 1.83329 15.4201 1.7718 15.319 1.72989C15.2178 1.68799 15.1094 1.6665 15 1.66666H4.99999C4.89054 1.6665 4.78214 1.68799 4.68102 1.72989C4.57991 1.7718 4.48808 1.83329 4.41083 1.91082L1.91166 4.40999C1.8338 4.48722 1.77205 4.57914 1.72999 4.68042C1.68793 4.7817 1.66641 4.89033 1.66666 4.99999V15.8333C1.66666 16.7525 2.41416 17.5 3.33333 17.5H16.6667C17.5858 17.5 18.3333 16.7525 18.3333 15.8333V4.99999C18.3336 4.89033 18.312 4.7817 18.27 4.68042C18.2279 4.57914 18.1662 4.48722 18.0883 4.40999ZM5.34499 3.33332H14.655L15.4883 4.16666H4.51166L5.34499 3.33332ZM3.33333 15.8333V5.83332H16.6667L16.6683 15.8333H3.33333Z" fill="black"/>
<path d="M11.6667 7.5H8.33334V10H5.83334L10 14.1667L14.1667 10H11.6667V7.5Z" fill="black"/>
</svg>
